<svg id="_0408_pizza" xmlns="http://www.w3.org/2000/svg" viewBox="0 0 500 500" data-imageid="pizza-4-ed0e5" imageName="Pizza" class="illustrations_image" style="width: 144px;"><defs><style>.cls-1_pizza-4-ed0e5{fill:#fff;opacity:.4;}.cls-2_pizza-4-ed0e5{opacity:.1;}.cls-3_pizza-4-ed0e5{fill:#24285b;}.cls-4_pizza-4-ed0e5{fill:#e6e6e6;opacity:.18;}.cls-5_pizza-4-ed0e5{fill:#ffd200;}.cls-6_pizza-4-ed0e5{fill:#68e1fd;}</style></defs><path id="bg_pizza-4-ed0e5" class="cls-4_pizza-4-ed0e5" d="m243.76,86.44c-45.16,4-89.42,15.5-130.42,34.95-33.84,16.05-64.71,38.16-80.39,73.05-22.9,50.95-25.85,130.97,19.02,171.98,25.78,23.56,63.26,27.5,97.85,32.27,55.16,7.61,110.28,20.22,165.85,16.79,58.74-3.63,118.81-28.62,147.73-82.44,11.87-22.09,16.8-47.26,19.1-72.24,5.02-54.43-13.64-120.18-57.9-156.56-17.14-14.09-39.06-16.33-60.44-17.93-39.93-2.99-80.52-3.41-120.41.12Z"/><g id="pizza_pizza-4-ed0e5"><path class="cls-6_pizza-4-ed0e5 targetColor" d="m463.37,334.56c-2.17.61-34.33,4.67-80.6,10.33-48.56,5.91-112.66,13.61-173.85,20.91v35.38c0,8.62-6.5,16.14-15.1,16.71-9.42.62-17.25-6.84-17.25-16.15l1.42-40.66c0-8.95-7.24-16.19-16.17-16.19s-16.19,7.24-16.19,16.19l-2.15,54.62c0,8.93-7.24,16.19-16.19,16.19-3.55,0-6.85-1.17-9.54-3.13v34c0,9.27-7.81,16.74-17.23,16.15-8.61-.54-15.12-8.06-15.12-16.68v-81.74c-21.03,2.5-38.73,4.59-51.42,6.1-8.61,1.02-14.27-8.72-9.14-15.71,38.85-52.95,159.24-205,226.16-288.92,27.05-33.89,45.37-56.66,46.08-57.31,2.84-2.57,9.68-9.37,37.48,7.24,27.78,16.63,76.62,73.76,118.29,168.36,41.68,94.6,18.74,132.02,10.52,134.32Z" style="fill: rgb(224, 91, 91);"/><path class="cls-2_pizza-4-ed0e5" d="m463.37,334.56c-1,.29-8.35,1.31-20.51,2.86-14.25,1.82-35.12,4.42-60.09,7.47-4.19-17.36-3.82-35.69,2.07-52.59.67-1.88,1.4-3.88.94-5.84-.52-2.17-2.38-3.74-4.03-5.28-9.64-8.93-14.67-22.58-13.17-35.63.92-7.93,4.09-15.67,3.59-23.63-.9-14.25-12.94-25.02-24.58-33.31-11.65-8.27-24.63-16.82-29.14-30.35-5.26-15.74,2.48-34.16-4.78-49.07-7.87-16.22-28.74-20.01-46.5-23.08-5.3-.94-10.87-2.27-16.17-4.15,12.42-15.57,23-28.76,30.87-38.57,9.29-11.56,14.82-18.39,15.21-18.74,2.84-2.57,9.68-9.37,37.48,7.24,27.78,16.63,76.62,73.76,118.29,168.36,41.68,94.6,18.74,132.02,10.52,134.32Z"/><circle class="cls-1_pizza-4-ed0e5" cx="281.88" cy="145.68" r="25"/><circle class="cls-1_pizza-4-ed0e5" cx="324.77" cy="235.35" r="25"/><circle class="cls-1_pizza-4-ed0e5" cx="179.92" cy="235.35" r="24.24"/><path class="cls-1_pizza-4-ed0e5" d="m77.08,321.16c12.81,3.88,20.05,17.42,16.17,30.23-3.88,12.81-17.42,20.05-30.23,16.17l14.06-46.4Z"/><path class="cls-1_pizza-4-ed0e5" d="m270.85,270.56c-3.88,12.81-17.42,20.05-30.23,16.17-12.81-3.88-20.05-17.42-16.17-30.23l46.4,14.06Z"/><path class="cls-5_pizza-4-ed0e5" d="m161.19,302.91s5.13-23.93-14.05-30.18c-19.18-6.25-14.72,17.99-14.72,17.99,0,0-24.25-3.01-24.33,2.39-.08,5.39.19,21.26,7.01,19.62,6.82-1.64,18.88-10.35,18.88-10.35,0,0,.92,10.64,10.36,13.54,9.44,2.9,14.17-3.85,16.86-13.01Z"/><path class="cls-5_pizza-4-ed0e5" d="m309.04,286.48s-19.41,14.9-8.86,32.09c10.56,17.19,22.87-4.16,22.87-4.16,0,0,16.52,18.01,20.08,13.95,3.56-4.05,13.64-16.31,7.38-19.48-6.26-3.17-21.08-4.36-21.08-4.36,0,0,6.2-8.7.89-17.03-5.31-8.33-13.28-6.25-21.27-1.02Z"/><path class="cls-5_pizza-4-ed0e5" d="m276.84,209.88s2.76-24.32-16.94-28.66c-19.7-4.34-12.89,19.34-12.89,19.34,0,0-24.43-.62-23.98,4.76.45,5.38,2.27,21.14,8.9,18.84,6.63-2.3,17.78-12.15,17.78-12.15,0,0,1.96,10.5,11.64,12.46s13.72-5.22,15.5-14.6Z"/><path class="cls-5_pizza-4-ed0e5" d="m226.25,301.55s-20.08,4.58-18.04,21.43c2.04,16.85,18.95,4.85,18.95,4.85,0,0,6.31,19.57,10.45,17.72s16.16-7.69,12.48-12.31c-3.67-4.62-14.59-10.73-14.59-10.73,0,0,7.79-4.48,6.66-12.71-1.14-8.23-7.96-9.44-15.91-8.25Z"/><path class="cls-3_pizza-4-ed0e5" d="m463.37,334.56c-1,.29-8.35,1.31-20.51,2.86-.1-4.88.17-9.75.75-14.59.73-5.97,1.94-12.1.42-17.91-2.09-8.1-9.08-14.15-11.65-22.12-2.32-7.24-.73-15.09-.94-22.69-.25-9.14-3.11-17.99-6.55-26.44-5.82-14.28-13.38-27.84-22.44-40.32-5.97-8.22-12.73-16.24-15.55-26-1.77-6.14-1.84-12.61-2.73-18.95-2.25-16.01-10.06-31.43-22.54-41.74-5.63-4.65-12.08-8.22-17.68-12.92-10.08-8.43-16.9-20.1-26.09-29.49-9.83-10.04-22.42-17.2-35.98-20.87,9.29-11.56,14.82-18.39,15.21-18.74,2.84-2.57,9.68-9.37,37.48,7.24,27.78,16.63,76.62,73.76,118.29,168.36,41.68,94.6,18.74,132.02,10.52,134.32Z"/><path class="cls-2_pizza-4-ed0e5" d="m234.6,157.27c-4.02-.92-8.41-.07-11.75,2.38-1.77,1.29-3.26,2.76-4.42,4.63-1.2,1.93-1.79,4.05-2.02,6.29-.09.92.49,2.09,1.12,2.72.67.67,1.76,1.17,2.72,1.12.99-.04,2.02-.37,2.72-1.12.62-.68.92-1.42,1.06-2.29-.01.08-.02.16-.03.23.08-.56.2-1.11.37-1.66.02-.06.09-.24.15-.4.07-.14.15-.32.19-.4.14-.26.29-.52.45-.77.06-.09.17-.23.26-.35.29-.34.58-.69.92-1,.17-.16.36-.32.54-.48.05-.04.1-.07.15-.11.47-.32.96-.61,1.47-.86.04-.02.08-.04.11-.05.24-.06.5-.19.72-.26.42-.13.85-.2,1.28-.28.55-.04,1.11-.04,1.66,0,.1.02.2.03.3.06,1.95.45,4.25-.6,4.72-2.68.45-1.95-.59-4.25-2.68-4.72Z"/><path class="cls-2_pizza-4-ed0e5" d="m300.65,268.27c-.35-1.98-2.88-3.28-4.72-2.68-2.13.69-3.06,2.6-2.68,4.72,0,.03.01.08.02.14,0,.03,0,.05,0,.06.03.31.04.61.05.92,0,.31,0,.62-.02.92,0,.17-.02.34-.04.51,0,.03,0,.04,0,.07-.07.52-.23,1.06-.36,1.53-.09.3-.18.59-.29.88-.02.05-.06.14-.09.23-.26.56-.56,1.1-.89,1.62-.1.16-.22.36-.34.54-.01.01,0,0-.02.02-.11.13-.22.26-.33.39-.43.49-.89.95-1.39,1.37-.02.02-.07.05-.11.09-.04.03-.08.06-.09.07-.28.2-.57.38-.87.55-1.73,1.03-2.51,3.5-1.38,5.25,1.12,1.74,3.41,2.48,5.25,1.38,2.95-1.76,5.46-4.46,6.87-7.6,1.59-3.53,2.1-7.18,1.42-11Z"/><path class="cls-2_pizza-4-ed0e5" d="m200.37,294.8c-.8-.74-1.64-.98-2.72-1.12-7.12-.94-14.34,1.54-19.76,6.15-1.54,1.31-1.44,4.1,0,5.43,1.63,1.5,3.79,1.39,5.43,0,.18-.15,1.01-1,.29-.26.24-.25.6-.44.89-.63.6-.41,1.23-.78,1.87-1.13.32-.17.65-.34.98-.49.12-.06.25-.11.37-.17.67-.25,1.34-.5,2.03-.7.7-.2,1.41-.37,2.13-.5.18-.03.36-.06.54-.09.43-.06.36-.06-.21.02.28-.13.79-.08,1.09-.1,1.46-.1,2.91-.05,4.36.15.9.12,2.11-.52,2.72-1.12.67-.67,1.17-1.76,1.12-2.72-.04-.99-.37-2.02-1.12-2.72Z"/><path class="cls-2_pizza-4-ed0e5" d="m127.49,369.49c-.61-1.87-2.69-3.39-4.72-2.68-1.38.48-2.79.81-4.23,1.04-1.84.2-3.69.2-5.54-.02-.42-.07-.83-.13-1.25-.22-1.96-.42-4.25.58-4.72,2.68-.44,1.93.58,4.27,2.68,4.72,5,1.08,10.26.88,15.1-.81,1.89-.66,3.35-2.66,2.68-4.72Z"/><path class="cls-2_pizza-4-ed0e5" d="m146.1,254.84c-3.22-3.1-7.38-4.86-11.82-5.18-.94-.07-2.07.48-2.72,1.12-.67.67-1.17,1.76-1.12,2.72.04.99.37,2.02,1.12,2.72.78.72,1.65,1.05,2.72,1.12.07,0,.14.02.22.02,1.01.16,1.99.43,2.94.79.84.39,1.65.86,2.41,1.4.28.23.56.46.82.71.72.69,1.71,1.12,2.72,1.12.94,0,2.07-.42,2.72-1.12.67-.73,1.17-1.69,1.12-2.72-.05-1.01-.38-2-1.12-2.72Z"/><path class="cls-2_pizza-4-ed0e5" d="m293.79,332.09c-.52-.8-1.32-1.58-2.29-1.76-.58-.11-1.13-.28-1.68-.48-.63-.3-1.22-.65-1.79-1.05-.5-.43-.97-.89-1.39-1.4-.37-.53-.7-1.09-.98-1.68-.09-.23-.18-.47-.25-.71-.27-.94-.92-1.8-1.76-2.29-.82-.48-2.04-.69-2.96-.39-1.96.63-3.28,2.66-2.68,4.72,1.52,5.23,6.05,9.64,11.46,10.67,1.03.2,2.03.16,2.96-.39.8-.47,1.56-1.38,1.76-2.29.22-.98.18-2.09-.39-2.96Z"/></g></svg>