<svg id="_0408_pizza" xmlns="http://www.w3.org/2000/svg" xmlns:xlink="http://www.w3.org/1999/xlink" viewBox="0 0 500 500" data-imageid="pizza-4" imageName="Pizza" class="illustrations_image" style="width: 144px;"><defs><style>.cls-1_pizza-4{fill:url(#linear-gradient);}.cls-1_pizza-4,.cls-2_pizza-4,.cls-3_pizza-4,.cls-4_pizza-4,.cls-5_pizza-4,.cls-6_pizza-4,.cls-7_pizza-4,.cls-8_pizza-4,.cls-9_pizza-4,.cls-10_pizza-4,.cls-11_pizza-4,.cls-12_pizza-4,.cls-13_pizza-4,.cls-14_pizza-4,.cls-15_pizza-4,.cls-16_pizza-4,.cls-17_pizza-4,.cls-18_pizza-4,.cls-19_pizza-4,.cls-20_pizza-4,.cls-21_pizza-4,.cls-22_pizza-4,.cls-23_pizza-4,.cls-24_pizza-4,.cls-25_pizza-4,.cls-26_pizza-4,.cls-27_pizza-4,.cls-28_pizza-4,.cls-29_pizza-4,.cls-30_pizza-4,.cls-31_pizza-4,.cls-32_pizza-4,.cls-33_pizza-4,.cls-34_pizza-4,.cls-35_pizza-4,.cls-36_pizza-4,.cls-37_pizza-4,.cls-38_pizza-4,.cls-39_pizza-4,.cls-40_pizza-4,.cls-41_pizza-4{stroke-width:0px;}.cls-2_pizza-4{opacity:.18;}.cls-2_pizza-4,.cls-32_pizza-4{isolation:isolate;}.cls-2_pizza-4,.cls-41_pizza-4{fill:#68e1fd;}.cls-3_pizza-4{fill:url(#linear-gradient-38-pizza-4);}.cls-4_pizza-4{fill:url(#linear-gradient-33-pizza-4);}.cls-5_pizza-4{fill:url(#linear-gradient-29-pizza-4);}.cls-6_pizza-4{fill:url(#linear-gradient-32-pizza-4);}.cls-7_pizza-4{fill:url(#linear-gradient-30-pizza-4);}.cls-8_pizza-4{fill:url(#linear-gradient-31-pizza-4);}.cls-9_pizza-4{fill:url(#linear-gradient-36-pizza-4);}.cls-10_pizza-4{fill:url(#linear-gradient-34-pizza-4);}.cls-11_pizza-4{fill:url(#linear-gradient-37-pizza-4);}.cls-12_pizza-4{fill:url(#linear-gradient-35-pizza-4);}.cls-13_pizza-4{fill:url(#linear-gradient-28-pizza-4);}.cls-14_pizza-4{fill:url(#linear-gradient-25-pizza-4);}.cls-15_pizza-4{fill:url(#linear-gradient-11-pizza-4);}.cls-16_pizza-4{fill:url(#linear-gradient-12-pizza-4);}.cls-17_pizza-4{fill:url(#linear-gradient-13-pizza-4);}.cls-18_pizza-4{fill:url(#linear-gradient-10-pizza-4);}.cls-19_pizza-4{fill:url(#linear-gradient-17-pizza-4);}.cls-20_pizza-4{fill:url(#linear-gradient-16-pizza-4);}.cls-21_pizza-4{fill:url(#linear-gradient-19-pizza-4);}.cls-22_pizza-4{fill:url(#linear-gradient-15-pizza-4);}.cls-23_pizza-4{fill:url(#linear-gradient-23-pizza-4);}.cls-24_pizza-4{fill:url(#linear-gradient-21-pizza-4);}.cls-25_pizza-4{fill:url(#linear-gradient-18-pizza-4);}.cls-26_pizza-4{fill:url(#linear-gradient-14-pizza-4);}.cls-27_pizza-4{fill:url(#linear-gradient-22-pizza-4);}.cls-28_pizza-4{fill:url(#linear-gradient-20-pizza-4);}.cls-29_pizza-4{fill:url(#linear-gradient-27-pizza-4);}.cls-30_pizza-4{fill:url(#linear-gradient-24-pizza-4);}.cls-31_pizza-4{fill:url(#linear-gradient-26-pizza-4);}.cls-32_pizza-4{fill:#fff;opacity:.79;}.cls-33_pizza-4{fill:url(#linear-gradient-4-pizza-4);}.cls-34_pizza-4{fill:url(#linear-gradient-2-pizza-4);}.cls-35_pizza-4{fill:url(#linear-gradient-3-pizza-4);}.cls-36_pizza-4{fill:url(#linear-gradient-8-pizza-4);}.cls-37_pizza-4{fill:url(#linear-gradient-9-pizza-4);}.cls-38_pizza-4{fill:url(#linear-gradient-7-pizza-4);}.cls-39_pizza-4{fill:url(#linear-gradient-5-pizza-4);}.cls-40_pizza-4{fill:url(#linear-gradient-6-pizza-4);}</style><linearGradient id="linear-gradient-pizza-4" x1="214.06" y1="200.75" x2="437.88" y2="757.86" gradientUnits="userSpaceOnUse"><stop offset="0" stop-color="#231f20" stop-opacity="0"/><stop offset="1" stop-color="#231f20"/></linearGradient><linearGradient id="linear-gradient-2-pizza-4" x1="255.96" y1="165.22" x2="225.99" y2="694.31" xlink:href="#linear-gradient-pizza-4"/><linearGradient id="linear-gradient-3-pizza-4" x1="258.59" y1="324.59" x2="215.59" y2="11.83" xlink:href="#linear-gradient-pizza-4"/><linearGradient id="linear-gradient-4-pizza-4" x1="760.77" y1="2247.76" x2="709.33" y2="1825.34" gradientTransform="translate(-486.69 2320.82) scale(1 -1)" gradientUnits="userSpaceOnUse"><stop offset="0" stop-color="#fff"/><stop offset=".13" stop-color="#fff" stop-opacity=".69"/><stop offset="1" stop-color="#68e1fd" stop-opacity="0"/></linearGradient><linearGradient id="linear-gradient-5-pizza-4" x1="634.34" y1="2056.61" x2="656.57" y2="2056.61" gradientTransform="translate(-486.69 2320.82) scale(1 -1)" xlink:href="#linear-gradient-pizza-4"/><linearGradient id="linear-gradient-6-pizza-4" x1="665.94" y1="2059.39" x2="688.23" y2="2059.39" gradientTransform="translate(-486.69 2320.82) scale(1 -1)" xlink:href="#linear-gradient-pizza-4"/><linearGradient id="linear-gradient-7-pizza-4" x1="668.58" y1="2040.09" x2="688.84" y2="2040.09" gradientTransform="translate(-486.69 2320.82) scale(1 -1)" xlink:href="#linear-gradient-pizza-4"/><linearGradient id="linear-gradient-8-pizza-4" x1="697.25" y1="2054.97" x2="717.8" y2="2054.97" gradientTransform="translate(-486.69 2320.82) scale(1 -1)" xlink:href="#linear-gradient-pizza-4"/><linearGradient id="linear-gradient-9-pizza-4" x1="705.9" y1="2030.01" x2="726.37" y2="2030.01" gradientTransform="translate(-486.69 2320.82) scale(1 -1)" xlink:href="#linear-gradient-pizza-4"/><linearGradient id="linear-gradient-10-pizza-4" x1="732.77" y1="2030.18" x2="756.26" y2="2030.18" gradientTransform="translate(-486.69 2320.82) scale(1 -1)" xlink:href="#linear-gradient-pizza-4"/><linearGradient id="linear-gradient-11-pizza-4" x1="722.7" y1="2056.64" x2="737.67" y2="2056.64" gradientTransform="translate(-486.69 2320.82) scale(1 -1)" xlink:href="#linear-gradient-pizza-4"/><linearGradient id="linear-gradient-12-pizza-4" x1="726.88" y1="2057.01" x2="733.95" y2="2057.01" gradientTransform="translate(-486.69 2320.82) scale(1 -1)" xlink:href="#linear-gradient-pizza-4"/><linearGradient id="linear-gradient-13-pizza-4" x1="770.82" y1="2029.22" x2="785.36" y2="2029.22" gradientTransform="translate(-486.69 2320.82) scale(1 -1)" xlink:href="#linear-gradient-pizza-4"/><linearGradient id="linear-gradient-14-pizza-4" x1="775.07" y1="2029.05" x2="781.55" y2="2029.05" gradientTransform="translate(-486.69 2320.82) scale(1 -1)" xlink:href="#linear-gradient-pizza-4"/><linearGradient id="linear-gradient-15-pizza-4" x1="789.58" y1="2042.49" x2="819.65" y2="2042.49" gradientTransform="translate(-486.69 2320.82) scale(1 -1)" xlink:href="#linear-gradient-pizza-4"/><linearGradient id="linear-gradient-16-pizza-4" x1="759.88" y1="2063.17" x2="789.29" y2="2063.17" gradientTransform="translate(-486.69 2320.82) scale(1 -1)" xlink:href="#linear-gradient-pizza-4"/><linearGradient id="linear-gradient-17-pizza-4" x1="818.57" y1="2062.98" x2="850.54" y2="2062.98" gradientTransform="translate(-486.69 2320.82) scale(1 -1)" xlink:href="#linear-gradient-pizza-4"/><linearGradient id="linear-gradient-18-pizza-4" x1="800.35" y1="2086.05" x2="824.4" y2="2086.05" gradientTransform="translate(-486.69 2320.82) scale(1 -1)" xlink:href="#linear-gradient-pizza-4"/><linearGradient id="linear-gradient-19-pizza-4" x1="761.17" y1="2096.7" x2="782.27" y2="2096.7" gradientTransform="translate(-486.69 2320.82) scale(1 -1)" xlink:href="#linear-gradient-pizza-4"/><linearGradient id="linear-gradient-20-pizza-4" x1="783.73" y1="2106.39" x2="799.22" y2="2106.39" gradientTransform="translate(-486.69 2320.82) scale(1 -1)" xlink:href="#linear-gradient-pizza-4"/><linearGradient id="linear-gradient-21-pizza-4" x1="741.66" y1="2112.58" x2="759.74" y2="2112.58" gradientTransform="translate(-486.69 2320.82) scale(1 -1)" xlink:href="#linear-gradient-pizza-4"/><linearGradient id="linear-gradient-22-pizza-4" x1="727.82" y1="2095.63" x2="749.82" y2="2095.63" gradientTransform="translate(-486.69 2320.82) scale(1 -1)" xlink:href="#linear-gradient-pizza-4"/><linearGradient id="linear-gradient-23-pizza-4" x1="727.69" y1="2060.42" x2="734.78" y2="2060.42" gradientTransform="translate(-486.69 2320.82) scale(1 -1)" xlink:href="#linear-gradient-pizza-4"/><linearGradient id="linear-gradient-24-pizza-4" x1="225.62" y1="274.78" x2="265.7" y2="501.53" xlink:href="#linear-gradient-pizza-4"/><linearGradient id="linear-gradient-25-pizza-4" x1="669.67" y1="2164.2" x2="668.64" y2="2097.66" gradientTransform="translate(-486.69 2320.82) scale(1 -1)" xlink:href="#linear-gradient-pizza-4"/><linearGradient id="linear-gradient-26-pizza-4" x1="671.21" y1="2140.42" x2="664.67" y2="2060.69" xlink:href="#linear-gradient-4-pizza-4"/><linearGradient id="linear-gradient-27-pizza-4" x1="657.36" y1="2207.4" x2="658.99" y2="2108.91" xlink:href="#linear-gradient-4-pizza-4"/><linearGradient id="linear-gradient-28-pizza-4" x1="167.49" y1="114.61" x2="136.65" y2="234.07" xlink:href="#linear-gradient-pizza-4"/><linearGradient id="linear-gradient-29-pizza-4" x1="116.48" y1="106.4" x2="258.53" y2="301.88" xlink:href="#linear-gradient-pizza-4"/><linearGradient id="linear-gradient-30-pizza-4" x1="653.31" y1="2173.41" x2="673.18" y2="2173.41" gradientTransform="translate(-486.69 2320.82) scale(1 -1)" xlink:href="#linear-gradient-pizza-4"/><linearGradient id="linear-gradient-31-pizza-4" x1="678.52" y1="2156.37" x2="696.26" y2="2156.37" gradientTransform="translate(-486.69 2320.82) scale(1 -1)" xlink:href="#linear-gradient-pizza-4"/><linearGradient id="linear-gradient-32-pizza-4" x1="-286.89" y1="2849.96" x2="-276.35" y2="2849.96" gradientTransform="translate(-1280.86 2629.02) rotate(35.44) scale(1 -1)" xlink:href="#linear-gradient-pizza-4"/><linearGradient id="linear-gradient-33-pizza-4" x1="-271.03" y1="2857.83" x2="-266.37" y2="2857.83" gradientTransform="translate(-1280.86 2629.02) rotate(35.44) scale(1 -1)" xlink:href="#linear-gradient-pizza-4"/><linearGradient id="linear-gradient-34-pizza-4" x1="-264.66" y1="2851.85" x2="-256.59" y2="2851.85" gradientTransform="translate(-1280.86 2629.02) rotate(35.44) scale(1 -1)" xlink:href="#linear-gradient-pizza-4"/><linearGradient id="linear-gradient-35-pizza-4" x1="-255.48" y1="2884" x2="-247.43" y2="2884" gradientTransform="translate(-1280.86 2629.02) rotate(35.44) scale(1 -1)" xlink:href="#linear-gradient-pizza-4"/><linearGradient id="linear-gradient-36-pizza-4" x1="141.75" y1="120.07" x2="210.81" y2="244.3" xlink:href="#linear-gradient-pizza-4"/><linearGradient id="linear-gradient-37-pizza-4" x1="623.96" y1="2095.86" x2="643.4" y2="2095.86" xlink:href="#linear-gradient-4-pizza-4"/><linearGradient id="linear-gradient-38-pizza-4" x1="652.2" y1="2149.82" x2="663.89" y2="2171.3" gradientTransform="translate(-486.69 2320.82) scale(1 -1)" gradientUnits="userSpaceOnUse"><stop offset="0" stop-color="#fff"/><stop offset=".13" stop-color="#fff" stop-opacity=".69"/><stop offset=".71" stop-color="#68e1fd" stop-opacity="0"/></linearGradient></defs><g id="background_pizza-4"><path class="cls-2_pizza-4 targetColor" d="M479.3,293.56c-8.42,15.88-23.68,28.28-27.91,45.77-1.83,7.54-1.41,15.46-2.31,23.18-3.31,27.04-23.59,49.58-47.75,62.34-1.01.55-2.04,1.06-3.06,1.56-15.86,7.76-33.04,11.97-50.56,14.61-10.65,1.59-21.42,2.56-32.11,3.46-44.44,3.51-89.03,4.8-133.6,3.85-21.54-.44-43.51-1.46-63.78-8.62-1.04-.36-2.06-.74-3.09-1.15-16.45-6.38-31.04-16.81-44-28.85l-.59-.55c-19.47-17.96-34.98-39.79-45.51-64.1-14.73-34.68-17.31-73.33-7.32-109.66,6.09-21.59,16.67-42.18,18.42-64.48,1.28-16.82-2.72-33.83-.08-50.49,5.26-33.02,35.97-57.36,68.41-65.54,32.43-8.18,66.59-3.53,99.71,1.14,16.2,2.31,35.14,8.49,51.16,3.54,19.63-6.09,36.29-13.63,57.47-13.67,8.67,0,17.51.91,25.46,4.38,9.63,4.2,17.27,11.83,25.06,18.85,21.79,19.58,46.7,35.4,69.01,54.4,22.31,19,42.51,42.13,50.68,70.25,4.01,13.76,5,28.2,5.44,42.52.6,19.55-.01,40-9.15,57.24Z" style="fill: rgb(224, 91, 91);"/></g><g id="pizza_pizza-4"><ellipse class="cls-41_pizza-4 targetColor" cx="244.82" cy="277.33" rx="173.33" ry="87.77" style="fill: rgb(224, 91, 91);"/><ellipse class="cls-1_pizza-4" cx="244.82" cy="277.33" rx="173.33" ry="87.77"/><ellipse class="cls-41_pizza-4 targetColor" cx="244.82" cy="265.2" rx="173.33" ry="87.77" style="fill: rgb(224, 91, 91);"/><path class="cls-34_pizza-4" d="M158.21,206.85c-1.83.43-3.9,2-3.26,3.78.37,1.09,1.55,1.55,2.63,2,10.59,4.04,20.81,8.99,30.56,14.77,6.54,3.88,13.38,8.89,14.95,16.31-12.1,5.9-26.41,2.56-39.86,3.22-11.5.56-22.59,4.13-33.82,6.62-11.23,2.49-23.19,3.84-34.05.08-.51,7.81-.56,15.65-.14,23.47.4,7.52,1.55,15.66,6.94,20.88,2.91,2.49,6.23,4.45,9.82,5.79l19.26,8.5c17.09,7.55,34.33,15.15,52.48,19.76,17.88,4.55,36.37,6.21,54.76,7.77l23.57,2c1.82.29,3.68.18,5.45-.34,2.5-.96,4.41-3.53,7.1-3.57,5.05,0,10.87-1.3,16-1.46,19.47-.54,39.4-1.2,57.56-8.25,17.59-6.84,32.36-19.23,46.76-31.41,5.25-4.43,11.03-10.19,9.93-16.98-.89-5.44-6.21-9.32-11.56-10.44-5.34-1.12-10.98-.36-16.48,0-26.41,1.55-52.12-8.42-76.74-18.24l-99.43-39.69c-13.76-5.53-28.03-7.89-42.41-4.57Z"/><path class="cls-41_pizza-4 targetColor" d="M126.69,242.25c.51-1.86-2.14-2.86-4.07-2.86-4.66,0-9.99.82-12.68,4.66-1.72,2.44-1.97,5.59-2.16,8.58-.57,8.59-1.13,17.2-.89,25.79-.09,3.16.48,6.3,1.66,9.23,1.45,2.61,3.36,4.94,5.64,6.88,6.76,6.49,13.69,13.11,22.18,17.09,11.29,5.31,24.42,5.56,35.86,10.6,3.93,1.72,7.61,4.01,11.64,5.53,8.06,3.11,16.93,2.89,25.54,2.69,42.61-1.03,84.53,5.75,126.18-3.28,5.24-.94,10.34-2.56,15.18-4.8,3.73-2.05,7.27-4.44,10.56-7.15,12.1-9.32,24.72-19.33,30.53-33.45,5.19-12.6,4.19-27.17-.68-39.88-4.88-12.71-13.34-23.8-22.84-33.53-8.89-9.17-18.97-17.49-30.78-22.32-7.15-2.67-14.53-4.69-22.04-6.03-16.58-3.43-33.21-6.88-50.12-7.77-34.19-1.84-68.15,6.63-97.47,24.31-4.35,2.64-9.03,6.21-9.32,11.28,8.62,6.11,18.31,10.57,28.55,13.14,2.78.55,5.48,1.47,8.03,2.72,2.63,1.83,5.07,3.91,7.3,6.21,10.87,9.41,28.13,11.57,34.86,24.25-9.63-.4-18.11-6.48-27.56-8.42-5.97-1.23-12.13-.78-18.22-.43-20.82,1.09-44.17-1.12-64.89-3.04Z" style="fill: rgb(224, 91, 91);"/><path class="cls-41_pizza-4 targetColor" d="M126.69,242.25c.51-1.86-2.14-2.86-4.07-2.86-4.66,0-9.99.82-12.68,4.66-1.72,2.44-1.97,5.59-2.16,8.58-.57,8.59-1.13,17.2-.89,25.79-.09,3.16.48,6.3,1.66,9.23,1.45,2.61,3.36,4.94,5.64,6.88,6.76,6.49,13.69,13.11,22.18,17.09,11.29,5.31,24.42,5.56,35.86,10.6,3.93,1.72,7.61,4.01,11.64,5.53,8.06,3.11,16.93,2.89,25.54,2.69,42.61-1.03,84.53,5.75,126.18-3.28,5.24-.94,10.34-2.56,15.18-4.8,3.73-2.05,7.27-4.44,10.56-7.15,12.1-9.32,24.72-19.33,30.53-33.45,5.19-12.6,4.19-27.17-.68-39.88-4.88-12.71-13.34-23.8-22.84-33.53-8.89-9.17-18.97-17.49-30.78-22.32-7.15-2.67-14.53-4.69-22.04-6.03-16.58-3.43-33.21-6.88-50.12-7.77-34.19-1.84-68.15,6.63-97.47,24.31-4.35,2.64-9.03,6.21-9.32,11.28,8.62,6.11,18.31,10.57,28.55,13.14,2.78.55,5.48,1.47,8.03,2.72,2.63,1.83,5.07,3.91,7.3,6.21,10.87,9.41,28.13,11.57,34.86,24.25-9.63-.4-18.11-6.48-27.56-8.42-5.97-1.23-12.13-.78-18.22-.43-20.82,1.09-44.17-1.12-64.89-3.04Z" style="fill: rgb(224, 91, 91);"/><path class="cls-35_pizza-4" d="M126.69,242.25c.51-1.86-2.14-2.86-4.07-2.86-4.66,0-9.99.82-12.68,4.66-1.72,2.44-1.97,5.59-2.16,8.58-.57,8.59-1.13,17.2-.89,25.79-.09,3.16.48,6.3,1.66,9.23,1.45,2.61,3.36,4.94,5.64,6.88,6.76,6.49,13.69,13.11,22.18,17.09,11.29,5.31,24.42,5.56,35.86,10.6,3.93,1.72,7.61,4.01,11.64,5.53,8.06,3.11,16.93,2.89,25.54,2.69,42.61-1.03,84.53,5.75,126.18-3.28,5.24-.94,10.34-2.56,15.18-4.8,3.73-2.05,7.27-4.44,10.56-7.15,12.1-9.32,24.72-19.33,30.53-33.45,5.19-12.6,4.19-27.17-.68-39.88-4.88-12.71-13.34-23.8-22.84-33.53-8.89-9.17-18.97-17.49-30.78-22.32-7.15-2.67-14.53-4.69-22.04-6.03-16.58-3.43-33.21-6.88-50.12-7.77-34.19-1.84-68.15,6.63-97.47,24.31-4.35,2.64-9.03,6.21-9.32,11.28,8.62,6.11,18.31,10.57,28.55,13.14,2.78.55,5.48,1.47,8.03,2.72,2.63,1.83,5.07,3.91,7.3,6.21,10.87,9.41,28.13,11.57,34.86,24.25-9.63-.4-18.11-6.48-27.56-8.42-5.97-1.23-12.13-.78-18.22-.43-20.82,1.09-44.17-1.12-64.89-3.04Z"/><path class="cls-41_pizza-4 targetColor" d="M242.06,254.37c2.3-1.37,3.48-4.04,2.95-6.66-.54-1.74-1.46-3.33-2.7-4.66-13.88-16.95-32.05-29.86-52.62-37.39,7.1-9.32,20.71-10.11,32.48-9.96l45.18.56c7.53-.05,15.06.34,22.54,1.17,27.78,3.59,52.65,18.97,74.57,36.49,2.73,1.93,5.05,4.38,6.84,7.21,1.3,2.69,2.12,5.59,2.44,8.56,1.29,7.77,2.31,16.56-2.64,22.65-2.42,2.97-5.97,4.82-8.64,7.57-2.67,2.75-4.27,6.01-6.49,8.95-4.75,6.17-11.54,10.45-19.16,12.07-5.73,9.07-18.08,10.73-28.82,10.97-24.59.56-49.17-1.46-73.34-6.03-16.36-3.11-32.48-7.33-48.87-10.33-9.32-1.72-18.92-3.11-27.96-6.07-9.04-2.97-17.77-7.97-23.51-15.54-5.73-7.57-8.02-18.27-4.13-27,.24-1.17.34-2.35.31-3.54,2.39.79,4.91,1.05,7.41.76,20.07-.87,40.17-1,60.29-.39,4.2.02,8.38.38,12.52,1.07,3.41.69,6.77,1.62,10.05,2.78,7.43,2.56,13.98,3.85,21.3,6.77Z" style="fill: rgb(224, 91, 91);"/><path class="cls-33_pizza-4" d="M242.06,254.37c2.3-1.37,3.48-4.04,2.95-6.66-.54-1.74-1.46-3.33-2.7-4.66-13.88-16.95-32.05-29.86-52.62-37.39,7.1-9.32,20.71-10.11,32.48-9.96l45.18.56c7.53-.05,15.06.34,22.54,1.17,27.78,3.59,52.65,18.97,74.57,36.49,2.73,1.93,5.05,4.38,6.84,7.21,1.3,2.69,2.12,5.59,2.44,8.56,1.29,7.77,2.31,16.56-2.64,22.65-2.42,2.97-5.97,4.82-8.64,7.57-2.67,2.75-4.27,6.01-6.49,8.95-4.75,6.17-11.54,10.45-19.16,12.07-5.73,9.07-18.08,10.73-28.82,10.97-24.59.56-49.17-1.46-73.34-6.03-16.36-3.11-32.48-7.33-48.87-10.33-9.32-1.72-18.92-3.11-27.96-6.07-9.04-2.97-17.77-7.97-23.51-15.54-5.73-7.57-8.02-18.27-4.13-27,.24-1.17.34-2.35.31-3.54,2.39.79,4.91,1.05,7.41.76,20.07-.87,40.17-1,60.29-.39,4.2.02,8.38.38,12.52,1.07,3.41.69,6.77,1.62,10.05,2.78,7.43,2.56,13.98,3.85,21.3,6.77Z"/><path class="cls-39_pizza-4" d="M167.49,261.58c.51-2.07-.59-4.2-2.58-4.99-1.95-.7-4.07-.82-6.09-.34-1.69.28-3.71.98-4.02,2.67-1.97-.19-4.23-.25-5.58,1.17-.62.74-1.03,1.62-1.2,2.56-.47,2.04-.49,4.16-.08,6.21.09.61.32,1.18.68,1.68.4.45.9.79,1.46.99,2.68,1.06,5.64,1.22,8.42.45,2.76-.77,5.35-2.04,7.64-3.74,1.68-.97,2.96-2.51,3.6-4.33.4-1.7-.2-3.48-1.55-4.58"/><path class="cls-40_pizza-4" d="M182.53,253.81c-.84.12-1.62.51-2.22,1.12-.44.58-.71,1.28-.78,2-.29,1.72-.36,3.48-.19,5.22.02.66.21,1.31.53,1.9.68,1.06,2.05,1.37,3.11,2.04,1.34.85,2.22,2.35,3.65,3.03,1.28.49,2.66.62,4.01.39,1.79-.16,3.57-.37,5.34-.64,1.1-.08,2.16-.41,3.11-.96,1.77-1.21,2.17-3.62,2.41-5.76.12-.58.12-1.18,0-1.76-.23-.54-.57-1.02-1.01-1.41-4.63-4.81-11.48-6.78-17.96-5.16Z"/><path class="cls-38_pizza-4" d="M187.76,273.82c-1.74.48-3.3,1.44-4.52,2.77-1.99,2.49-1.55,6.21-.19,9.07.2.49.49.94.87,1.32.56.41,1.22.66,1.91.75,2.66.66,5.41.86,8.14.59,2.76-.29,5.29-1.65,7.05-3.79.48-.59.82-1.27,1.01-2,.25-1.26.06-2.56-.54-3.7-2.7-5.55-8.3-6.88-13.73-5Z"/><path class="cls-36_pizza-4" d="M214.36,260.33c-.39-.1-.79-.1-1.18,0-.59.27-1.06.74-1.32,1.34-1.06,1.84-1.49,3.97-1.23,6.07.29,2.11,1.47,4,3.23,5.2,2.2,1.13,4.68,1.62,7.15,1.41,2.31.24,4.64-.24,6.66-1.38,1.73-1.5,2.91-3.54,3.34-5.79.1-.29.1-.61,0-.9-.15-.26-.39-.46-.67-.56-1.06-.64-2.22-1.08-3.43-1.32-1.24-.22-2.5.22-3.34,1.15,0-.82.61-1.55,1.13-2.14,1.37-1.52,2.14-3.47,2.19-5.52-1.55-.25-4.18-.92-5.79-.45-1.93.54-2.31,3.11-3.25,4.66-1-.86-2.2-1.47-3.5-1.77Z"/><path class="cls-37_pizza-4" d="M220.96,289.31c.7-1.58,1.77-2.98,3.11-4.07,1.5-1.01,3.26-1.55,5.06-1.55,2.29-.19,4.59.28,6.63,1.35,2.05,1.09,3.49,3.06,3.91,5.34.07.28.04.58-.08.84-.13.2-.32.36-.53.47-1.34.81-2.76,1.47-4.24,1.97l-.34-2.02c0-.33-.15-.64-.39-.87-.47-.33-1.1.11-1.34.62-.65,1.55.7,3.11.95,4.66.1.37.02.77-.22,1.07-.21.19-.48.32-.76.37-1.46.35-2.95.51-4.44.48-.17.01-.34-.03-.48-.11-.19-.15-.31-.37-.34-.61-.19-.79-.28-1.6-.26-2.41.07-.52.02-1.06-.16-1.55-.58-.86-1.75-1.09-2.61-.52-.13.09-.25.19-.36.31-.72.95-.92,2.2-.53,3.32-.87-.21-1.72-.47-2.56-.78-.75-.36-1.34-.98-1.66-1.74-.47-1.26.99-3.37,1.63-4.6Z"/><path class="cls-18_pizza-4" d="M250.54,283.48c-1.69,1.41-3.02,3.19-3.91,5.2-.93,2.65-.65,5.58.75,8.02,1.4,2.41,3.54,4.31,6.09,5.44,1.04.52,2.17.81,3.32.87,1.84-.11,3.6-.78,5.05-1.91,6.21-4.32,10.42-12.8,5.72-19.84-4.1-6.14-13-1.52-17.01,2.22Z"/><path class="cls-15_pizza-4" d="M239.11,259.9c-1.63,1.55-3.25,3.42-3.11,5.64.32,2.1,1.72,3.87,3.7,4.66,1.68.86,3.63,1.04,5.44.51,1.69-.76,3.16-1.92,4.29-3.39.52-.5.94-1.09,1.26-1.74.47-1.53.19-3.19-.75-4.49-.99-1.55-2.7-3.73-4.77-3.74-2.27.04-4.44.95-6.06,2.55Z"/><path class="cls-16_pizza-4" d="M240.95,265.69c.77,1.08,1.95,1.78,3.26,1.93.42.07.86.03,1.26-.12.54-.29.95-.76,1.18-1.32,1.06-2.24,1.24-6.07-2-6.21-3.25-.14-5.72,2.87-3.7,5.73Z"/><path class="cls-17_pizza-4" d="M290.25,284.43c-3.72,1.54-6.13,5.17-6.11,9.2.09,1.92,1.13,3.67,2.78,4.66,1.13.52,2.36.78,3.6.76,1.43.12,2.88-.08,4.23-.59,2.16-1.09,3.61-3.2,3.84-5.61.25-1.94-.14-6.21-1.93-7.53-.79-.38-1.63-.68-2.49-.87-1.27-.43-2.65-.44-3.93-.02Z"/><path class="cls-26_pizza-4" d="M294.23,288.13c-.68-.41-1.5-.48-2.24-.2-.65.29-1.22.74-1.65,1.32-.65.84-1.17,1.77-1.55,2.77-.21.44-.32.91-.33,1.4.05.77.44,1.49,1.07,1.94.64.44,1.37.72,2.14.81.41.08.84.03,1.23-.14.25-.17.45-.4.59-.67.26-.46.49-.95.67-1.44.44-.91.7-1.9.78-2.91,0-1.52-.82-2.92-2.14-3.67"/><path class="cls-22_pizza-4" d="M309.65,269.03c-2.64,1.07-4.6,3.35-5.27,6.12-1.13,2.74-1.61,5.7-1.41,8.65.25,3,2.11,5.63,4.86,6.85,1.79.52,3.69.59,5.52.22,4.87-.47,9.54-2.16,13.58-4.92,3.88-2.94,6.59-7.77,5.93-12.6-.09-.88-.4-1.72-.9-2.45-.54-.63-1.19-1.16-1.93-1.55-3.24-2.06-6.91-3.35-10.72-3.78-3.29-.23-6.9,1.99-9.66,3.46Z"/><path class="cls-20_pizza-4" d="M285.82,248.67c-2.87-.3-6.09,0-8.06,2.1-.74.86-1.34,1.84-1.77,2.89-.7,1.46-1.35,2.95-1.97,4.44-.6,1.17-.86,2.48-.76,3.79.27,1.13.94,2.12,1.88,2.8,2.27,1.46,4.94,2.17,7.63,2.02,5.21.15,10.43-.31,15.54-1.37.89-.11,1.75-.44,2.49-.95.93-.93,1.52-2.14,1.68-3.45.24-.74.24-1.53,0-2.27-.27-.46-.64-.87-1.07-1.18-4.51-3.56-9.32-8.82-15.57-8.82Z"/><path class="cls-19_pizza-4" d="M339.92,250.39c-1.12-.11-2.26.05-3.31.47-.8.47-1.46,1.13-1.94,1.93-1.09,1.61-1.94,3.37-2.53,5.22-.24.6-.31,1.26-.2,1.9.27.72.76,1.33,1.4,1.76,6.39,5,14.66,6.91,22.59,5.22,2.23-.37,4.3-1.4,5.93-2.95,2.06-2.4,2.57-5.75,1.32-8.65-1.84-4.02-5.72-6.73-10.13-7.07-4.37-.03-8.62,2.16-13.13,2.19Z"/><path class="cls-25_pizza-4" d="M317.85,225.3c-2.12,1.41-3.35,3.84-3.23,6.39,2.64.73,5.19,1.73,7.63,2.98.34.17.84.31,1.04,0-3.26,1.6-6.31,3.61-9.06,5.98-.28.2-.49.49-.57.82,0,.41.18.81.5,1.07,1.58,1.63,3.74,2.56,6.01,2.59.45.02.89-.04,1.32-.17,1.24-.43,1.93-1.71,2.66-2.8,1.49-2.24,3.52-4.06,5.92-5.28-.18.73,0,1.5.5,2.07.26.19.57.31.89.37,2.04.46,4.17.24,6.07-.61.34-2.34.22-4.72-.36-7.01-.16-.8-.5-1.56-.98-2.22-.55-.6-1.21-1.08-1.94-1.43-1.44-.81-2.92-1.55-4.4-2.35-1.76-.97-3.76-1.42-5.76-1.3-2.13.09-4.27-.25-6.23.89Z"/><path class="cls-21_pizza-4" d="M279.3,216.9c-1.99,1.47-3.47,3.51-4.26,5.86-.45.89-.63,1.9-.53,2.89.26.92.74,1.77,1.41,2.45,1.29,1.9,3.1,3.4,5.2,4.32,1.71.47,3.52.47,5.24,0,2.78-.54,5.36-1.83,7.46-3.73.61-.55,1.09-1.22,1.43-1.97.34-1,.42-2.07.23-3.11-.4-3.11-2.52-7.13-5.81-7.89-1.54-.24-3.1-.3-4.66-.2-2-.09-3.98.39-5.72,1.38Z"/><path class="cls-28_pizza-4" d="M308.3,210.65c-.63-.75-1.53-1.21-2.5-1.3-1.71-.33-3.46-.4-5.19-.23-.79.04-1.56.25-2.27.61-.72.37-1.21,1.07-1.3,1.88.03.72.3,1.4.78,1.94,1.04,1.23,2.3,2.24,3.73,2.98,2.17,1.29,4.48,2.34,6.88,3.11.68.28,1.45.28,2.13,0,.42-.28.75-.67.95-1.13.56-1.09.9-2.28,1.03-3.5.07-.53,0-1.06-.19-1.55-.48-.75-1.21-1.31-2.07-1.55-1.66-.66-3.36-1.21-5.1-1.65"/><path class="cls-24_pizza-4" d="M272.66,206.27c-.95-.7-1.99-1.26-3.11-1.65-3.48-1.28-7.31-1.28-10.8,0-1.06.35-2.02.93-2.81,1.71-.82.81-1.18,1.97-.98,3.11.3,1.09,1.08,1.99,2.13,2.44,1.04.42,2.14.66,3.26.71,3.45.29,6.91.29,10.36,0,.51,0,1.01-.13,1.46-.37.66-.52.95-1.38.75-2.19-.21-.79-.58-1.53-1.07-2.17"/><path class="cls-27_pizza-4" d="M246.3,221.73c-1.21.52-2.33,1.22-3.34,2.07-1.01.86-1.65,2.07-1.8,3.39-.08.54.03,1.09.31,1.55.5.62,1.22,1.03,2,1.15,2.04.5,4.12.85,6.21,1.06,3.5.39,7.21.54,10.32-1.1,1.15-.57,2.1-1.48,2.73-2.59.62-1.14.62-2.51,0-3.65-.41-.62-.94-1.14-1.55-1.55-1.74-1.2-3.99-3-6.21-2.86-3.02.31-5.96,1.17-8.67,2.55Z"/><path class="cls-41_pizza-4 targetColor" d="M168.31,258.13c.51-2.07-.59-4.2-2.58-4.99-1.95-.7-4.07-.82-6.09-.34-1.71.28-3.73.98-4.04,2.67-1.96-.19-4.21-.25-5.56,1.17-.62.73-1.04,1.62-1.21,2.56-.43,2.05-.43,4.17,0,6.21.09.61.32,1.18.68,1.68.4.45.91.79,1.48.99,2.68,1.07,5.63,1.23,8.4.47,2.76-.78,5.35-2.05,7.66-3.76,1.68-.97,2.95-2.51,3.6-4.33.38-1.7-.22-3.46-1.55-4.58" style="fill: rgb(224, 91, 91);"/><path class="cls-41_pizza-4 targetColor" d="M183.33,250.45c-.84.13-1.61.52-2.22,1.12-.43.59-.7,1.28-.76,2-.29,1.72-.36,3.48-.19,5.22.02.66.2,1.31.53,1.9.68,1.06,2.04,1.37,3.11,2.04,1.34.87,2.22,2.35,3.65,3.03,1.28.49,2.67.62,4.02.39,1.79-.16,3.56-.37,5.33-.62,1.1-.09,2.16-.42,3.11-.98,1.79-1.21,2.17-3.62,2.42-5.76.29-1.16-.14-2.38-1.09-3.11-4.6-4.83-11.44-6.83-17.91-5.22Z" style="fill: rgb(224, 91, 91);"/><path class="cls-41_pizza-4 targetColor" d="M188.57,270.42c-1.73.49-3.3,1.44-4.52,2.77-1.99,2.49-1.55,6.21-.17,9.07.19.5.49.95.87,1.32.56.41,1.21.67,1.9.76,2.67.65,5.42.84,8.16.57,2.76-.29,5.29-1.65,7.05-3.79.47-.59.81-1.28,1.01-2,.25-1.26.06-2.56-.54-3.7-2.7-5.55-8.3-6.88-13.75-5Z" style="fill: rgb(224, 91, 91);"/><path class="cls-41_pizza-4 targetColor" d="M215.18,256.92c-.39-.1-.8-.1-1.2,0-.59.27-1.06.74-1.32,1.34-1.06,1.84-1.49,3.97-1.21,6.07.29,2.11,1.47,4,3.23,5.2,2.2,1.13,4.68,1.62,7.15,1.41,2.31.24,4.63-.24,6.65-1.38,1.73-1.5,2.91-3.54,3.34-5.79.12-.29.12-.61,0-.9-.14-.26-.37-.46-.65-.56-1.06-.64-2.23-1.08-3.45-1.3-1.24-.23-2.5.21-3.34,1.15.1-.83.51-1.6,1.15-2.14,1.35-1.53,2.13-3.49,2.19-5.53-1.55-.25-4.19-.92-5.81-.45-1.93.54-2.3,3.11-3.25,4.66-1-.86-2.2-1.47-3.48-1.77Z" style="fill: rgb(224, 91, 91);"/><path class="cls-41_pizza-4 targetColor" d="M221.77,285.92c.71-1.58,1.77-2.98,3.11-4.09,1.5-1.01,3.27-1.55,5.08-1.55,2.29-.18,4.59.28,6.63,1.35,2.04,1.11,3.47,3.07,3.91,5.34.07.28.04.58-.08.84-.14.2-.33.36-.54.47-1.34.81-2.76,1.48-4.24,1.99l-.33-2.04c-.01-.33-.16-.65-.4-.87-.45-.33-1.1.11-1.32.62-.65,1.55.68,3.11.95,4.66.08.37,0,.76-.22,1.07-.22.2-.49.32-.78.37-1.45.35-2.95.51-4.44.48-.39.05-.75-.22-.8-.62,0-.03,0-.07,0-.1-.19-.79-.28-1.6-.26-2.41.07-.52.02-1.06-.16-1.55-.58-.86-1.75-1.09-2.61-.52-.13.09-.25.19-.36.31-.73.95-.92,2.2-.53,3.32-.87-.21-1.73-.47-2.56-.78-.75-.35-1.34-.97-1.66-1.72-.47-1.34.99-3.39,1.62-4.6Z" style="fill: rgb(224, 91, 91);"/><path class="cls-41_pizza-4 targetColor" d="M251.36,280.08c-1.68,1.42-3.02,3.2-3.91,5.2-.92,2.65-.66,5.57.73,8.02,1.4,2.41,3.54,4.31,6.09,5.44,1.04.52,2.18.81,3.34.87,1.83-.12,3.59-.78,5.03-1.91,6.21-4.32,10.44-12.8,5.73-19.84-4.12-6.14-13.02-1.52-17.01,2.22Z" style="fill: rgb(224, 91, 91);"/><path class="cls-41_pizza-4 targetColor" d="M239.93,256.5c-1.63,1.55-3.25,3.43-3.11,5.64.33,2.09,1.73,3.86,3.7,4.66,1.68.87,3.64,1.05,5.45.51,1.69-.75,3.15-1.92,4.27-3.39.52-.5.94-1.09,1.26-1.74.48-1.53.2-3.2-.75-4.49-.98-1.55-2.69-3.73-4.75-3.74-2.28.04-4.45.95-6.07,2.55Z" style="fill: rgb(224, 91, 91);"/><path class="cls-23_pizza-4" d="M241.69,262.29c.77,1.08,1.95,1.78,3.26,1.93.43.07.87.03,1.27-.12.53-.29.94-.76,1.17-1.32,1.07-2.22,1.26-6.07-1.99-6.21-3.25-.14-5.65,2.87-3.71,5.73Z"/><path class="cls-41_pizza-4 targetColor" d="M291.07,281.03c-1.95.73-3.59,2.1-4.66,3.88-1.06,1.56-1.6,3.42-1.55,5.31.07,1.92,1.11,3.68,2.77,4.66,1.14.52,2.37.78,3.62.76,1.43.12,2.87-.08,4.21-.59,2.16-1.09,3.61-3.2,3.85-5.61.25-1.94-.14-6.21-1.93-7.53-.79-.38-1.63-.67-2.49-.87-1.24-.41-2.58-.41-3.82-.02Z" style="fill: rgb(224, 91, 91);"/><path class="cls-41_pizza-4 targetColor" d="M295.05,284.73c-.68-.41-1.51-.48-2.25-.2-.65.29-1.21.75-1.63,1.32-.68.84-1.23,1.77-1.65,2.77-.19.44-.3.92-.33,1.4.05.78.45,1.5,1.09,1.94.64.44,1.37.72,2.14.81.41.08.83.03,1.21-.14.25-.17.45-.4.59-.67.27-.46.5-.94.68-1.44.43-.91.7-1.9.78-2.91,0-1.52-.83-2.93-2.16-3.67" style="fill: rgb(224, 91, 91);"/><path class="cls-41_pizza-4 targetColor" d="M310.48,265.63c-1.27.59-2.41,1.41-3.37,2.42-.86,1.1-1.51,2.35-1.9,3.7-1.13,2.74-1.61,5.7-1.41,8.65.25,3,2.11,5.63,4.86,6.85,1.79.52,3.68.6,5.5.22,4.87-.47,9.54-2.16,13.58-4.92,3.88-2.94,6.6-7.77,5.93-12.6-.08-.88-.39-1.73-.9-2.45-.53-.64-1.19-1.17-1.93-1.55-3.23-2.06-6.89-3.35-10.7-3.78-3.31-.23-6.85,1.99-9.66,3.46Z" style="fill: rgb(224, 91, 91);"/><path class="cls-41_pizza-4 targetColor" d="M286.63,245.27c-2.86-.3-6.09,0-8.06,2.1-.74.86-1.34,1.84-1.77,2.89-.68,1.46-1.35,2.95-1.96,4.44-.61,1.16-.88,2.48-.76,3.79.24,1.14.9,2.15,1.83,2.84,2.26,1.46,4.93,2.17,7.61,2.02,5.21.14,10.43-.32,15.54-1.37.89-.11,1.74-.44,2.49-.95.92-.94,1.51-2.15,1.68-3.45.25-.74.25-1.53,0-2.27-.26-.47-.63-.87-1.07-1.17-4.51-3.62-9.26-8.89-15.52-8.89Z" style="fill: rgb(224, 91, 91);"/><path class="cls-41_pizza-4 targetColor" d="M340.72,246.99c-1.12-.11-2.25.05-3.29.47-.8.47-1.47,1.13-1.94,1.93-1.1,1.61-1.95,3.36-2.53,5.22-.25.6-.32,1.26-.2,1.9.26.73.75,1.34,1.4,1.76,6.38,5,14.66,6.91,22.59,5.22,2.23-.37,4.3-1.4,5.95-2.95,2.05-2.4,2.56-5.75,1.32-8.65-1.84-4.02-5.72-6.72-10.13-7.05-4.38-.05-8.65,2.14-13.16,2.17Z" style="fill: rgb(224, 91, 91);"/><path class="cls-41_pizza-4 targetColor" d="M318.63,221.9c-2.13,1.41-3.36,3.84-3.23,6.39,2.64.74,5.19,1.74,7.63,2.98.34.17.84.31,1.04,0-3.27,1.59-6.31,3.61-9.06,6-.29.19-.5.48-.59.81,0,.42.19.81.51,1.07,1.57,1.63,3.73,2.57,6,2.59.45.03.91-.03,1.34-.17,1.23-.43,1.93-1.71,2.64-2.8,1.49-2.24,3.54-4.06,5.93-5.28-.18.73,0,1.5.5,2.07.26.19.56.31.87.37,2.04.46,4.18.24,6.09-.61.34-2.34.22-4.72-.36-7.01-.16-.81-.5-1.56-.99-2.22-.55-.59-1.2-1.08-1.93-1.43-1.46-.81-2.92-1.55-4.41-2.35-1.76-.97-3.75-1.42-5.75-1.3-2.1.17-4.24-.25-6.23.89Z" style="fill: rgb(224, 91, 91);"/><path class="cls-41_pizza-4 targetColor" d="M280.12,213.5c-1.98,1.47-3.47,3.52-4.26,5.86-.46.89-.64,1.9-.53,2.89.26.92.74,1.77,1.41,2.45,1.29,1.91,3.09,3.41,5.2,4.32,1.71.47,3.52.47,5.24,0,2.78-.55,5.35-1.84,7.46-3.73.61-.55,1.09-1.22,1.41-1.97.35-1,.44-2.07.25-3.11-.42-3.11-2.52-7.13-5.81-7.89-1.54-.24-3.1-.3-4.66-.2-2-.09-3.98.39-5.72,1.38Z" style="fill: rgb(224, 91, 91);"/><path class="cls-41_pizza-4 targetColor" d="M309.11,207.2c-.63-.74-1.53-1.21-2.5-1.3-1.7-.33-3.45-.4-5.17-.23-.8.04-1.57.25-2.28.61-.71.37-1.2,1.08-1.29,1.88.01.72.28,1.41.76,1.94,1.04,1.23,2.3,2.26,3.73,3.01,2.17,1.26,4.48,2.28,6.88,3.03.68.28,1.44.28,2.11,0,.43-.27.77-.67.96-1.13.55-1.09.89-2.28,1.01-3.5.08-.52.02-1.06-.17-1.55-.47-.76-1.22-1.32-2.08-1.55-1.65-.67-3.35-1.22-5.08-1.65" style="fill: rgb(224, 91, 91);"/><path class="cls-41_pizza-4 targetColor" d="M273.49,202.88c-.94-.71-1.99-1.27-3.11-1.66-3.51-1.3-7.37-1.3-10.87,0-1.05.35-2.01.93-2.8,1.71-.82.81-1.19,1.97-.99,3.11.3,1.1,1.09,2,2.14,2.44,1.04.42,2.13.66,3.25.71,3.45.29,6.92.29,10.38,0,.51,0,1.01-.13,1.46-.37.65-.52.94-1.38.75-2.19-.22-.78-.58-1.52-1.07-2.17" style="fill: rgb(224, 91, 91);"/><path class="cls-41_pizza-4 targetColor" d="M247.17,218.33c-1.21.51-2.34,1.21-3.34,2.07-1.01.86-1.66,2.07-1.82,3.39-.07.54.04,1.08.31,1.55.5.62,1.22,1.03,2,1.15,2.04.5,4.12.86,6.21,1.06,3.48.39,7.21.54,10.3-1.1,1.16-.56,2.11-1.46,2.73-2.58.63-1.14.63-2.53,0-3.67-.4-.62-.93-1.15-1.55-1.55-1.72-1.2-3.99-2.98-6.21-2.86-3.01.31-5.94,1.18-8.64,2.55Z" style="fill: rgb(224, 91, 91);"/><path class="cls-30_pizza-4" d="M121.81,277.58c2.1,2.64,4.57,4.95,7.35,6.85l20.37,15.54c3.25,2.47,6.66,5.02,10.7,5.61,2.94.42,5.93-.25,8.92-.14,3.85.4,7.62,1.32,11.22,2.75,8.54,2.73,17.45,4.12,26.41,4.15l-3.23.37c1.23-.98,1.85,1.68,2.77,2.95.6.64,1.38,1.08,2.24,1.26l25.29,7.89c1.29.51,2.67.71,4.05.61,1.73-.52,3.35-1.36,4.77-2.47,9.4-5.52,21.08,3.11,31.94,2,3.11-.5,6.17-1.21,9.18-2.13,11.45-2.69,23.3.16,35.05,1.48,11.74,1.32,24.76.64,33.34-7.43-6.35,10.33-18.91,14.85-30.71,17.55-40.55,9.24-82.91,5.44-123.96-1.21-10.52-1.69-21.07-3.6-31.07-7.41-17.35-6.65-32.08-18.78-48.98-26.55-2.24-.8-4.26-2.11-5.9-3.84-.99-1.4-1.69-2.98-2.04-4.66-1.9-7.02-7.16-41.36,1.55-44.31,6.93-2.38,6.74,6.48,6.74,10.32-.11,7.04-.28,14.81,4.01,20.82Z"/></g><g id="slice_pizza_pizza-4"><path class="cls-14_pizza-4" d="M133.42,191.67c-1.3,5.69-3.11,11.31-3.46,17.09-.45,6.8,1.01,13.78-.57,20.41-1.09,4.55-3.57,9.32-1.88,13.64l3.42-1.13c-.91-11.97.27-24,3.5-35.56,1.06-3.36,1.95-6.77,2.66-10.22,1.3-7.67,0-15.77,2.33-23.18.31-.98.92-2.1,1.93-2.1.52.06,1.01.29,1.38.67,3.48,3.11,3.39,8.44,3,13.08l-3.11,38.17c4.41-2.58,4.66-8.72,4.91-13.81.75-12.34,5.34-24.08,9.88-35.58,2.19,22.2-2.78,44.52-14.17,63.7-1.55,2.72-3.42,5.58-3.28,8.73,3.63.46,7.31-.08,10.66-1.55,3.26-21.75,11.59-42.29,19.87-62.61l-2.98,25.56,7.77-22.84c.43-1.27,1.55-2.86,2.75-2.21.71.4.79,1.4.76,2.22-.68,18.52-7.99,36.4-7.86,54.93,4.23-5.27,4.54-12.54,5.06-19.26,1.07-13.47,3.67-26.77,7.77-39.65,2.53-1.03,5.28,1.55,5.58,4.35s-.96,5.31-1.85,7.89c-1.66,4.8-1.94,10.61,1.34,14.49,3.37-5.97,5.28-12.66,5.55-19.51,1.54-.66,3.25-.8,4.88-.4,2.16,7.77.25,16.08-1.1,24.08-1.35,8-2.02,16.75,2.22,23.66,4.66-6.91,4.3-16.02,3.03-24.28-.57-3.79-1.3-7.77-.36-11.4s4.16-7.18,7.99-7.01c4.29.2,7.08,4.55,8.62,8.56,1.26,2.67,1.63,5.68,1.06,8.58l4.21-7.38.22,46.53,6.46-34.3-.56,22.01c4.44-8.84,6.43-18.71,5.76-28.59.02-1.07-.26-2.12-.81-3.03-.56-.76-2.07-7.01-2.91-7.43-12.68-6.46-23.3-13.13-35.92-19.59-9.24-4.66-20.01-3.5-29.95-6.51-5.56-1.68-11.29-2.8-17-3.93-4.1-.84-10.42-3.51-14.46-1.24-4.47,2.5-2.16,6.11-1.34,10.02.81,5.32.48,10.75-.98,15.92Z"/><path class="cls-41_pizza-4 targetColor" d="M132.21,191.67c-1.3,5.69-3.11,11.31-3.46,17.09-.45,6.8,1.01,13.78-.57,20.41-1.09,4.55-3.57,9.32-1.88,13.64l3.42-1.13c-.91-11.97.27-24,3.5-35.56,1.06-3.36,1.95-6.77,2.66-10.22,1.3-7.67,0-15.77,2.33-23.18.31-.98.92-2.1,1.93-2.1.52.06,1.01.29,1.38.67,3.48,3.11,3.39,8.44,3,13.08l-3.11,38.17c4.41-2.58,4.66-8.72,4.91-13.81.75-12.34,5.34-24.08,9.88-35.58,2.19,22.2-2.78,44.52-14.17,63.7-1.55,2.72-3.42,5.58-3.28,8.73,3.63.46,7.31-.08,10.66-1.55,3.26-21.75,11.59-42.29,19.87-62.61l-2.98,25.56,7.77-22.84c.43-1.27,1.55-2.86,2.75-2.21.71.4.79,1.4.76,2.22-.68,18.52-7.97,36.4-7.86,54.93,4.23-5.27,4.54-12.54,5.06-19.26,1.06-13.47,3.66-26.77,7.77-39.65,2.52-1.03,5.27,1.55,5.56,4.35.3,2.8-.96,5.31-1.85,7.89-1.66,4.8-1.94,10.61,1.34,14.49,3.44-5.99,5.39-12.73,5.69-19.64,1.54-.66,3.25-.8,4.88-.4,2.16,7.77.25,16.08-1.1,24.08-1.35,8-2.02,16.75,2.22,23.66,4.66-6.91,4.3-16.02,3.03-24.28-.57-3.79-1.3-7.77-.36-11.4s4.16-7.18,7.99-7.01c4.29.2,7.08,4.55,8.62,8.56,1.26,2.67,1.63,5.68,1.06,8.58l4.21-7.38.22,46.53,6.46-34.3-.56,22.01c4.44-8.84,6.43-18.71,5.76-28.59.02-1.07-.26-2.12-.81-3.03-.56-.76-2.07-7.01-2.91-7.43-12.68-6.46-23.3-13.13-35.92-19.59-9.24-4.66-20.01-3.5-29.95-6.51-5.56-1.68-11.28-2.8-17-3.93-4.1-.84-10.42-3.51-14.46-1.24-4.47,2.5-2.16,6.11-1.34,10.02.79,5.37.41,10.84-1.1,16.05Z" style="fill: rgb(224, 91, 91);"/><path class="cls-31_pizza-4" d="M132.21,191.67c-1.3,5.69-3.11,11.31-3.46,17.09-.45,6.8,1.01,13.78-.57,20.41-1.09,4.55-3.57,9.32-1.88,13.64l3.42-1.13c-.91-11.97.27-24,3.5-35.56,1.06-3.36,1.95-6.77,2.66-10.22,1.3-7.67,0-15.77,2.33-23.18.31-.98.92-2.1,1.93-2.1.52.06,1.01.29,1.38.67,3.48,3.11,3.39,8.44,3,13.08l-3.11,38.17c4.41-2.58,4.66-8.72,4.91-13.81.75-12.34,5.34-24.08,9.88-35.58,2.19,22.2-2.78,44.52-14.17,63.7-1.55,2.72-3.42,5.58-3.28,8.73,3.63.46,7.31-.08,10.66-1.55,3.26-21.75,11.59-42.29,19.87-62.61l-2.98,25.56,7.77-22.84c.43-1.27,1.55-2.86,2.75-2.21.71.4.79,1.4.76,2.22-.68,18.52-7.97,36.4-7.86,54.93,4.23-5.27,4.54-12.54,5.06-19.26,1.06-13.47,3.66-26.77,7.77-39.65,2.52-1.03,5.27,1.55,5.56,4.35.3,2.8-.96,5.31-1.85,7.89-1.66,4.8-1.94,10.61,1.34,14.49,3.44-5.99,5.39-12.73,5.69-19.64,1.54-.66,3.25-.8,4.88-.4,2.16,7.77.25,16.08-1.1,24.08-1.35,8-2.02,16.75,2.22,23.66,4.66-6.91,4.3-16.02,3.03-24.28-.57-3.79-1.3-7.77-.36-11.4s4.16-7.18,7.99-7.01c4.29.2,7.08,4.55,8.62,8.56,1.26,2.67,1.63,5.68,1.06,8.58l4.21-7.38.22,46.53,6.46-34.3-.56,22.01c4.44-8.84,6.43-18.71,5.76-28.59.02-1.07-.26-2.12-.81-3.03-.56-.76-2.07-7.01-2.91-7.43-12.68-6.46-23.3-13.13-35.92-19.59-9.24-4.66-20.01-3.5-29.95-6.51-5.56-1.68-11.28-2.8-17-3.93-4.1-.84-10.42-3.51-14.46-1.24-4.47,2.5-2.16,6.11-1.34,10.02.79,5.37.41,10.84-1.1,16.05Z"/><path class="cls-32_pizza-4" d="M132.21,191.67c-1.3,5.69-3.11,11.31-3.46,17.09-.45,6.8,1.01,13.78-.57,20.41-1.09,4.55-3.57,9.32-1.88,13.64l3.42-1.13c-.91-11.97.27-24,3.5-35.56,1.06-3.36,1.95-6.77,2.66-10.22,1.3-7.67,0-15.77,2.33-23.18.31-.98.92-2.1,1.93-2.1.52.06,1.01.29,1.38.67,3.48,3.11,3.39,8.44,3,13.08l-3.11,38.17c4.41-2.58,4.66-8.72,4.91-13.81.75-12.34,5.34-24.08,9.88-35.58,2.19,22.2-2.78,44.52-14.17,63.7-1.55,2.72-3.42,5.58-3.28,8.73,3.63.46,7.31-.08,10.66-1.55,3.26-21.75,11.59-42.29,19.87-62.61l-2.98,25.56,7.77-22.84c.43-1.27,1.55-2.86,2.75-2.21.71.4.79,1.4.76,2.22-.68,18.52-7.97,36.4-7.86,54.93,4.23-5.27,4.54-12.54,5.06-19.26,1.06-13.47,3.66-26.77,7.77-39.65,2.52-1.03,5.27,1.55,5.56,4.35.3,2.8-.96,5.31-1.85,7.89-1.66,4.8-1.94,10.61,1.34,14.49,3.44-5.99,5.39-12.73,5.69-19.64,1.54-.66,3.25-.8,4.88-.4,2.16,7.77.25,16.08-1.1,24.08-1.35,8-2.02,16.75,2.22,23.66,4.66-6.91,4.3-16.02,3.03-24.28-.57-3.79-1.3-7.77-.36-11.4s4.16-7.18,7.99-7.01c4.29.2,7.08,4.55,8.62,8.56,1.26,2.67,1.63,5.68,1.06,8.58l4.21-7.38.22,46.53,6.46-34.3-.56,22.01c4.44-8.84,6.43-18.71,5.76-28.59.02-1.07-.26-2.12-.81-3.03-.56-.76-2.07-7.01-2.91-7.43-12.68-6.46-23.3-13.13-35.92-19.59-9.24-4.66-20.01-3.5-29.95-6.51-5.56-1.68-11.28-2.8-17-3.93-4.1-.84-10.42-3.51-14.46-1.24-4.47,2.5-2.16,6.11-1.34,10.02.79,5.37.41,10.84-1.1,16.05Z"/><path class="cls-32_pizza-4" d="M236.12,223.55c0,6.21-.4,12.66,1.32,18.64,1.12,3.9,3.11,7.95,1.83,11.79-.7.75-1.76-.48-2.04-1.48-3.43-12.43-6.31-25.21-6.6-38.14-.08-3.25.14-6.85,2.41-9.18,2.98,1.55,2.41,5,2.66,8.12.28,3.42.42,6.83.42,10.24Z"/><path class="cls-41_pizza-4 targetColor" d="M236.2,204.17c-28.51-18.44-60.52-30.79-94.04-36.26-8.14-1.34-16.48-2.28-24.1-5.45-1.82-.97-3.83-1.54-5.89-1.68-1.6.17-3.17.56-4.66,1.17-4.24,1.34-8.78,1.38-13.05.14-3-.7-5.6-2.56-7.22-5.17-.67-1.48-1.1-3.05-1.27-4.66-.09-.65-.2-1.3-.3-1.96-.55-3.01-.68-6.09-.39-9.13.34-3.76,2.25-7.2,5.27-9.46,2.86-1.9,6.45-2.14,9.8-2.87,5.64-1.24,10.87-3.88,16.2-6,10.28-3.8,21.04-6.13,31.97-6.9,5.73-.51,11.48-.73,17.23-.85,5.08-.09,10.53.87,14.98-1.8,4.3,2.03,7.82,5.41,10.02,9.63,1.37,2.6,2.19,5.47,2.39,8.4,0,1.3.15,2.59.42,3.85.57,1.63,1.45,3.13,2.61,4.41,13.27,16.92,25.25,34.81,35.86,53.52,2.07,3.4,4.04,7.08,4.16,11.08Z" style="fill: rgb(224, 91, 91);"/><path class="cls-41_pizza-4 targetColor" d="M236.2,204.17c-28.51-18.44-60.52-30.79-94.04-36.26-8.14-1.34-16.48-2.28-24.1-5.45-1.82-.97-3.83-1.54-5.89-1.68-1.6.17-3.17.56-4.66,1.17-4.24,1.34-8.78,1.38-13.05.14-3-.7-5.6-2.56-7.22-5.17-.67-1.48-1.1-3.05-1.27-4.66-.09-.65-.2-1.3-.3-1.96-.55-3.01-.68-6.09-.39-9.13.34-3.76,2.25-7.2,5.27-9.46,2.86-1.9,6.45-2.14,9.8-2.87,5.64-1.24,10.87-3.88,16.2-6,10.28-3.8,21.04-6.13,31.97-6.9,5.73-.51,11.48-.73,17.23-.85,5.08-.09,10.53.87,14.98-1.8,4.3,2.03,7.82,5.41,10.02,9.63,1.37,2.6,2.19,5.47,2.39,8.4,0,1.3.15,2.59.42,3.85.57,1.63,1.45,3.13,2.61,4.41,13.27,16.92,25.25,34.81,35.86,53.52,2.07,3.4,4.04,7.08,4.16,11.08Z" style="fill: rgb(224, 91, 91);"/><path class="cls-29_pizza-4" d="M207.76,154.93c2.14,3.5,3.9,7.22,6.21,10.61,1.91,2.81,4.16,5.38,6.11,8.17,3.54,5.56,6.45,11.49,8.67,17.69-23.57-9.45-46.79-19.71-69.66-30.81-4.23-2.05-9.32-.37-13.38-2.87-4.6-2.82-9.46-5.17-14.53-7.02-4.43-1.55-9.2-2.08-13.83-2.94-1.17-.22-2.52-.64-2.86-1.77-.43-1.43,1.1-2.66,2.42-3.39l6.74-3.76c1.94-.94,3.98-1.68,6.07-2.21,4.4-1.48,8.97-2.4,13.59-2.75,4.37-.17,7.01-.25,11.39-.4,3.93-.16,7.77.11,11.42-1.34,7.6-3,15.75-4.32,23.91-3.88.59-.08,1.13.33,1.2.92.02.11.01.23,0,.34,1.55,10.64,11.12,16.56,16.51,25.4Z"/><path class="cls-13_pizza-4" d="M95.96,133.66c3.28-1.09,6.88-.51,9.65,1.55,3.03,2.06,5.33,5.02,6.57,8.47.26,1.08.8,2.07,1.55,2.87,1.01.66,2.2.98,3.4.92,16.23,1.13,29.98,12.01,45.39,17.26,4.82,1.63,9.8,2.72,14.7,4.13,12.38,3.59,24.07,9.24,34.57,16.72,2.56,1.59,4.71,3.76,6.29,6.32-15.54-5.56-30.87-11.78-46-18.64-6.71-3.11-13.64-6.21-21-6.32-4.04,0-8.05.89-12.07.82-8.28-.11-15.89-4.27-23.82-6.65-1.36-.49-2.8-.72-4.24-.68-.97.1-1.92.29-2.86.56-4.43,1.12-9.32,1.4-13.33-.92-2.29-1.37-3.91-3.61-4.49-6.21-.57-2.86,1.29-5,1.04-7.77-.19-2.1-1.55-3.68-.98-5.89.83-2.89,2.89-5.28,5.62-6.54Z"/><path class="cls-5_pizza-4" d="M191.49,127.97c-.33.17-.71.23-1.07.17-6.14-.44-12.31.36-18.15,2.35-2.44.82-4.83,1.86-7.36,2.47-3.02.61-6.1.9-9.18.85-10.77.28-21.97.75-32.02,5.03-4.91,2.1-7.57,5.56-11.87,8.36-4.6,2.7-9.56,4.73-14.73,6.04-1.5.54-3.07.83-4.66.89-2.72-.19-5.21-1.62-6.74-3.88-.55-3.01-.68-6.09-.39-9.13.34-3.76,2.25-7.2,5.27-9.46,2.86-1.9,6.45-2.14,9.8-2.87,5.64-1.24,10.87-3.88,16.2-6,10.28-3.8,21.04-6.13,31.97-6.9,5.73-.51,11.48-.73,17.23-.85,5.08-.09,10.53.87,14.98-1.8,4.3,2.03,7.82,5.41,10.02,9.63.43,1.12.77,2.28.99,3.46.16.56.19,1.29-.3,1.65Z"/><path class="cls-7_pizza-4" d="M179.75,141.74c-5.1-1.82-10.73.66-12.83,5.65-.3.54-.36,1.19-.16,1.77.18.32.44.59.75.79,1.6,1.23,3.3,2.32,5.1,3.25,1.16-1.09,2.47-2,3.9-2.7-.22-1.02-.6-2-1.13-2.89.98-.22,2.22-.31,2.72.56.15.3.24.63.26.96.43,2.14,1.99,3.88,4.07,4.54l3.98-3.57-5.72-4.43c1.44-1.07,3.5.48,5.27.14.17-.02.33-.1.43-.23.06-.18.06-.37,0-.54-.08-1.18-.69-2.25-1.66-2.92-.56-.22-1.16-.3-1.76-.23l-5.95.14"/><path class="cls-41_pizza-4 targetColor" d="M180.57,139.28c-5.11-1.82-10.75.67-12.85,5.67-.3.54-.35,1.17-.16,1.76.18.32.43.6.75.79,1.61,1.24,3.33,2.33,5.14,3.26,1.16-1.09,2.48-2,3.9-2.7-.2-1.02-.58-2-1.12-2.89.96-.22,2.22-.31,2.72.54.14.3.23.63.26.96.41,2.17,1.97,3.93,4.07,4.6l3.98-3.56-5.72-4.44c1.44-1.07,3.5.48,5.27.14.17-.02.33-.1.43-.23.07-.17.07-.36,0-.53.14-1.6-1.05-3.01-2.64-3.14-.26-.02-.52,0-.77.04l-5.95.14" style="fill: rgb(224, 91, 91);"/><path class="cls-8_pizza-4" d="M199.68,156.7c-1.46.78-2.76,1.83-3.82,3.11-2.04,2.21-3.99,4.82-4.02,7.77-.04.75.13,1.5.5,2.16.93,1.17,2.31,1.9,3.81,2.02,1.72.36,3.48.62,5.25.81,1.6.27,3.25.12,4.78-.42,2.92-1.3,3.98-5.16,3.11-8.23-1.12-3.9-4.94-9.4-9.6-7.21Z"/><path class="cls-41_pizza-4 targetColor" d="M199.68,154.17c-1.46.78-2.76,1.83-3.82,3.11-2.04,2.22-3.99,4.83-4.02,7.77-.04.75.13,1.5.5,2.16.94,1.17,2.31,1.9,3.81,2.02,1.73.36,3.49.62,5.25.79,1.6.28,3.25.14,4.78-.42,2.92-1.29,3.98-5.14,3.11-8.22-1.12-3.88-4.94-9.4-9.6-7.21Z" style="fill: rgb(224, 91, 91);"/><path class="cls-6_pizza-4" d="M144.45,139.69c-.98-.12-1.97-.06-2.92.19-1.79.21-3.45,1.07-4.66,2.41-.28.35-.45.77-.5,1.21.05.89.47,1.72,1.15,2.28.71.77,1.46,1.5,2.25,2.19.68.69,1.53,1.19,2.47,1.44,1.95.18,3.76-1.04,4.33-2.91.84-2.3.89-6.28-2.13-6.82Z"/><path class="cls-41_pizza-4 targetColor" d="M145.32,138.46c-.97-.12-1.96-.06-2.91.19-1.8.2-3.46,1.06-4.66,2.41-.28.35-.46.77-.51,1.21.05.89.47,1.72,1.15,2.28.71.77,1.47,1.5,2.27,2.19.67.68,1.5,1.17,2.42,1.43,1.95.18,3.76-1.03,4.33-2.91.87-2.28.92-6.26-2.1-6.8Z" style="fill: rgb(224, 91, 91);"/><path class="cls-4_pizza-4" d="M158.29,143.09c-.43-.08-.86-.08-1.29,0-.79.1-1.51.48-2.05,1.06-.11.16-.19.35-.22.54.02.39.2.76.5,1.01.33.34.65.67,1.01.98.3.3.68.52,1.09.64.86.07,1.66-.46,1.91-1.29.36-.96.39-2.7-.95-2.94Z"/><path class="cls-41_pizza-4 targetColor" d="M158.62,142.55c-1.23-.11-2.44.31-3.34,1.15-.13.15-.21.33-.22.53.02.39.2.76.5,1.01.33.34.65.67,1.01.98.3.3.67.52,1.07.64.87.08,1.67-.46,1.93-1.29.42-1.03.43-2.78-.95-3.01Z" style="fill: rgb(224, 91, 91);"/><path class="cls-10_pizza-4" d="M162.13,151.28c-.75-.09-1.51-.04-2.24.16-1.37.16-2.63.81-3.56,1.83-.21.27-.34.59-.37.93.03.68.35,1.31.87,1.74.54.59,1.13,1.15,1.72,1.68.52.52,1.17.9,1.88,1.1,1.5.17,2.9-.77,3.32-2.22.64-1.77.67-4.8-1.63-5.22Z"/><path class="cls-41_pizza-4 targetColor" d="M162.8,150.34c-.75-.1-1.51-.05-2.24.14-1.35.17-2.59.82-3.5,1.83-.21.27-.34.59-.37.93.04.68.35,1.31.87,1.76.54.59,1.13,1.15,1.72,1.68.53.52,1.17.9,1.88,1.1,1.5.17,2.9-.77,3.32-2.22.57-1.77.61-4.82-1.69-5.22Z" style="fill: rgb(224, 91, 91);"/><path class="cls-12_pizza-4" d="M188.24,130.41c-.75-.1-1.51-.05-2.24.14-1.37.16-2.63.81-3.56,1.83-.21.27-.34.59-.37.93.04.68.36,1.31.87,1.76.54.59,1.13,1.15,1.72,1.68.53.52,1.17.9,1.88,1.1,1.5.17,2.9-.77,3.32-2.22.64-1.77.67-4.82-1.63-5.22Z"/><path class="cls-41_pizza-4 targetColor" d="M188.91,129.53c-.75-.09-1.51-.04-2.24.16-1.37.16-2.63.81-3.56,1.83-.21.27-.34.59-.37.93.04.67.36,1.3.87,1.74.54.59,1.13,1.15,1.72,1.68.52.52,1.17.9,1.88,1.1,1.5.17,2.9-.77,3.32-2.22.7-1.82.7-4.86-1.63-5.22Z" style="fill: rgb(224, 91, 91);"/><path class="cls-9_pizza-4" d="M120.42,135.49c2.89-1.13,4.41-4.37,7.1-5.9,3.68-2.11,8.3-.56,12.55-.68,7.15-.22,13.34-5.31,20.44-6.21,3.93-.48,7.89.37,11.82.71,3.93.34,8.2.12,11.42-2.19,2.36,1.3,4.33,3.2,5.72,5.5-14.45,4.66-29.14,9.32-44.32,9.9-4.91.16-9.9-.12-14.63,1.2-4.07,1.22-7.8,3.39-10.87,6.32-1.71,1.55-3.85,3.48-6.03,2.66-2.17-.82-4.83-6.52-4.07-8.62,1.29-3.78,7.94-1.51,10.87-2.67Z"/><path class="cls-2_pizza-4 targetColor" d="M160.39,185.89c-.81,1.63-1.47,3.33-1.96,5.08-.24,1.29-.37,2.6-.37,3.91l-.14,4.05c0,.84,0,1.86.79,2.25s1.99-.5,2.52-1.43c2.22-3.87,2.7-8.56,4.97-12.43.96-1.55,2.19-3.11,3.25-4.66.7-1.04,1.32-2.14,1.94-3.25l1.23-2.16.37,3.22c0,.26.1.51.28.7.34.31.87,0,1.24-.23,1.37-.97,2.7-2.01,4.01-3.11.95.57.95,1.91.82,3.01l-.76,6.73c1.38-1.17,2.2-2.86,2.27-4.66.08-1.79.62-3.53,1.55-5.05-4.66-2.08-9.21-4.55-13.98-6.21-1.35-.5-3.11-.84-4.12.48s-.95,4.37-1.37,6.12c-.6,2.62-1.46,5.17-2.55,7.63Z" style="fill: rgb(224, 91, 91);"/><path class="cls-11_pizza-4" d="M152.82,224.65c2.69-6.7,4.66-13.98,3.56-21.08-2.84,3.28-3.37,7.89-4.66,12.01-3.4,10.44-14.12,19.4-14.4,30.78,3.11-1.9,7.38-2.24,8.96-5.75,2.3-5.19,4.43-10.64,6.54-15.95Z"/><path class="cls-3_pizza-4" d="M136.87,152.3c.32,2.32-.18,4.68-1.41,6.68-1.2,1.98-2.24,4.06-3.11,6.21-.88,2.2-.57,4.69.81,6.62,3.03-1.34,6.23-2.25,9.51-2.69,1.72,1.8,4.04,2.9,6.52,3.11,2.47.22,4.95.07,7.38-.43.66-.15,1.33-.19,2-.12.77.17,1.5.47,2.16.9,2.38,1.29,4.93,2.22,7.58,2.77l-1.4-.7c1.68,1.24,3.59,2.11,5.62,2.56,1.65.37,3.36.45,4.97.93,2.02.61,3.82,1.82,5.86,2.38,1.76.26,3.49.69,5.16,1.29,1.29.83,2.5,1.78,3.62,2.83,1.15,1.06,2.79,1.41,4.27.9-.73-3.26-3.78-5.45-6.73-7.02-.85-.47-1.82-1.01-2.08-1.94-.12-.58-.12-1.18,0-1.76.24-1.84-.13-3.7-1.07-5.3-.25-.46-.6-.86-1.03-1.17-.92-.44-1.95-.57-2.95-.37-7.24.54-14.4-1.88-20.93-5.05-6.52-3.17-12.69-7.12-19.36-9.97-1.13-.6-2.42-.84-3.7-.68l-1.71.03Z"/></g></svg>